<?xml version="1.0" encoding="utf-8"?>
<!-- Generator: Adobe Illustrator 17.0.0, SVG Export Plug-In . SVG Version: 6.00 Build 0)  -->
<!DOCTYPE svg PUBLIC "-//W3C//DTD SVG 1.1//EN" "http://www.w3.org/Graphics/SVG/1.1/DTD/svg11.dtd">
<svg version="1.1" id="Layer_1" xmlns="http://www.w3.org/2000/svg" xmlns:xlink="http://www.w3.org/1999/xlink" x="0px" y="0px"
	 width="300px" height="68.353px" viewBox="0 0 300 68.353" enable-background="new 0 0 300 68.353" xml:space="preserve">
<path fill="#363649" d="M14.302,15.902c-3.667,0-7.052,1.785-9.614,4.679v-4.704H0v52.211h4.688V47.404
	c2.159,3.038,5.447,5.446,9.696,5.446c13.745,0,13.745-14.087,13.745-19.339S27.384,15.902,14.302,15.902z M14.118,48.268
	c-6.02,0-9.43-6.226-9.43-13.905s2.344-13.905,9.43-13.905c7.299,0,9.43,6.226,9.43,13.905S20.778,48.268,14.118,48.268z"/>
<path fill="#363649" d="M177.116,44.087c-3.169,3.489-5.52,4.013-8.682,3.963c-3.064-0.048-10.175-0.634-10.175-14.22
	c0-5.784,1.961-13.308,10.415-13.313c3.928-0.002,6.364,1.667,7.874,3.967l3.889-3.583c-2.829-3.796-7.105-5.399-11.871-5.399
	c-9.59,0-15.716,6.926-15.716,18.513c0,9.474,3.783,18.513,15.638,18.513c4.316,0,7.628-0.373,12.079-4.995L177.116,44.087z"/>
<path fill="#363649" d="M51.55,48.268c-3.305,0-10.125-0.912-10.858-12.498h20.203c0,0,0,0,0,0l5.115,0
	c0-13.448-6.605-20.427-15.079-20.427c-10.257,0-15.344,6.926-15.344,18.513c0,9.474,3.41,18.514,15.265,18.514
	c4.893,0,9.688-1.105,13.629-5.504L61,43.639C58.337,46.785,55.246,48.268,51.55,48.268z M50.719,20.352
	c7.138,0,9.295,6.217,9.926,11.188h-19.94C41.115,26.194,43.273,20.352,50.719,20.352z"/>
<path fill="#363649" d="M248.292,16.168c-3.667,0-7.052,1.785-9.614,4.679v-4.704h-4.688v52.211h4.688V47.671
	c2.159,3.038,5.447,5.446,9.696,5.446c13.745,0,13.745-14.087,13.745-19.339S261.373,16.168,248.292,16.168z M248.108,48.535
	c-6.02,0-9.43-6.226-9.43-13.905s2.344-13.905,9.43-13.905c7.299,0,9.43,6.226,9.43,13.905S254.767,48.535,248.108,48.535z"/>
<path fill="#363649" d="M285.54,48.535c-3.305,0-10.125-0.912-10.858-12.498h20.203c0,0,0,0,0,0l5.115,0
	c0-13.448-6.605-20.427-15.079-20.427c-10.257,0-15.344,6.926-15.344,18.513c0,9.474,3.41,18.514,15.265,18.514
	c4.893,0,9.688-1.105,13.629-5.504l-3.483-3.227C292.327,47.051,289.236,48.535,285.54,48.535z M284.708,20.618
	c7.138,0,9.295,6.217,9.926,11.188h-19.94C275.104,26.46,277.263,20.618,284.708,20.618z"/>
<path fill="#363649" d="M90.143,15.61c-4.147,0-8.449,2.181-10.762,5.234v-4.435h-4.688v35.759h4.688V27.81
	c2.451-6.127,5.274-7.352,9.167-7.31c4.525,0.049,5.857,2.302,5.857,2.302l4.369-3.836C98.774,18.966,95.311,15.61,90.143,15.61z"/>
<path fill="#363649" d="M133.883,31.859c-10.336-0.053-10.115-4.358-10.122-5.274c-0.017-2.103-0.006-6.18,8.189-6.18
	c3.745,0,6.196,0.533,8.969,2.561l4.099-3.599c0,0-4.635-3.969-13.319-3.969c-1.376,0-12.818,1.012-12.818,10.859
	c0,2.354,0.937,9.653,12.339,9.653c10.336,0.053,10.19,4.156,10.197,5.072c0.016,2.103,0.326,6.908-9.53,7.075
	c-6.287,0.107-9.191-1.865-11.269-3.942l-3.141,3.092c0,0,4.047,5.326,14.01,5.326c3.729,0,14.811-0.362,14.811-11.22
	C146.297,38.956,145.284,31.859,133.883,31.859z"/>
<rect x="104.528" y="16.409" fill="#363649" width="4.688" height="35.759"/>
<rect x="104.102" y="0" fill="#363649" width="5.115" height="6.5"/>
<path fill="#363649" d="M227.596,31.855h-3.828c-1.084-8.213-7.658-14.688-15.924-15.597v-3.366h-3.996v3.366
	c-8.292,0.912-14.883,7.424-15.936,15.673h-3.151v4.216h3.09c0.885,8.44,7.57,15.146,15.997,16.073v4.012h3.996v-4.012
	c8.453-0.929,15.154-7.673,16.007-16.149h3.745V31.855z M207.844,48.344v-6.096h-3.996v6.096c-6.294-0.889-11.271-5.89-12.12-12.196
	h6.859v-4.216h-6.797c1.002-6.117,5.898-10.927,12.059-11.797v6.743h3.996v-6.743c6.135,0.866,11.017,5.639,12.047,11.72h-6.121
	v4.216h6.205C219.157,42.414,214.164,47.452,207.844,48.344z"/>
</svg>
